<svg id="arrow" xmlns="http://www.w3.org/2000/svg" width="34.414" height="47.915" viewBox="0 0 34.414 47.915">
  <g id="Group_49" data-name="Group 49" transform="translate(0 0)">
    <path id="Path_42" data-name="Path 42" d="M.151,22.55A6.852,6.852,0,0,1,2.226,19L21.564,2.046A7.781,7.781,0,0,1,26.886,0a7.282,7.282,0,0,1,7.528,6.988,6.714,6.714,0,0,1-2.226,4.961l-13.7,12.009,13.72,12.028a6.7,6.7,0,0,1,2.206,4.941,7.282,7.282,0,0,1-7.528,6.988,7.786,7.786,0,0,1-5.312-2.036L2.205,28.9A6.823,6.823,0,0,1,.151,25.365,6.547,6.547,0,0,1,0,23.957,6.724,6.724,0,0,1,.151,22.55Z" transform="translate(0)"/>
  </g>
</svg>
